<svg id="heart" width="80px" height="80px" viewBox="0 0 30 30" xmlns="http://www.w3.org/2000/svg" style="cursor: pointer;">
    <path fill="#FFFFFF" d="M7.98 2C5.74 2.12 3.61 3.2 2.16 4.89 0.7 6.57 0 8.79 0 11c0 1.94.7 3.82 1.65 5.46 0.95 1.64 2.19 3.08 3.5 4.39 2.82 2.83 6.08 5.23 9.62 7.09 0.15 0.08 0.32 0.08 0.46 0 3.54-1.86 6.8-4.26 9.62-7.09 1.31-1.32 2.55-2.75 3.5-4.39C29.3 14.82 30 12.94 30 11c0-2.22-0.7-4.43-2.15-6.11C26.39 3.2 24.26 2.12 22.03 2c-1.52-0.08-3.05 0.29-4.36 1.04-1.1 0.63-1.98 1.56-2.66 2.61-0.69-1.05-1.57-1.98-2.66-2.61C11.02 2.29 9.49 1.92 7.98 2z"/>
</svg>
